<svg width="31" height="30" viewBox="0 0 31 30" fill="none" xmlns="http://www.w3.org/2000/svg">
<path d="M30.4386 24.946L26.2089 29.1418C25.5846 29.7821 24.757 29.999 23.951 30C20.3868 29.8932 17.0177 28.1424 14.2515 26.3446C9.71097 23.0414 5.54482 18.9455 2.93007 13.9958C1.92722 11.9202 0.750523 9.27195 0.862948 6.95522C0.872973 6.08372 1.10782 5.2284 1.7216 4.66665L5.95125 0.439121C6.82955 -0.307953 7.67892 -0.0496535 8.24097 0.820546L11.6437 7.2731C12.0019 8.03752 11.7964 8.85657 11.2621 9.4028L9.7038 10.9603C9.6076 11.0921 9.54635 11.2421 9.5448 11.4053C10.1423 13.7184 11.9526 15.8503 13.5518 17.3175C15.151 18.7847 16.8699 20.7724 19.1012 21.243C19.377 21.3199 19.7149 21.3469 19.9122 21.1635L21.7249 19.3199C22.3498 18.8463 23.2521 18.6148 23.9192 19.0021H23.951L30.0888 22.6257C30.9898 23.1905 31.0837 24.282 30.4386 24.946Z" fill="white"/>
</svg>
