<svg width="27" height="27" viewBox="0 0 27 27" fill="none" xmlns="http://www.w3.org/2000/svg">
<path d="M14.25 18V20.5H11.75V18H14.25ZM18 14.25H20.5V11.75H18V14.25ZM20.5 24.25H18V26.75H20.5V24.25ZM24.25 18V20.5H26.75V18H24.25ZM23 14.25C23.3315 14.25 23.6495 14.3817 23.8839 14.6161C24.1183 14.8505 24.25 15.1685 24.25 15.5H26.75C26.75 14.5054 26.3549 13.5516 25.6517 12.8484C24.9484 12.1451 23.9946 11.75 23 11.75V14.25ZM24.25 23C24.25 23.3315 24.1183 23.6495 23.8839 23.8839C23.6495 24.1183 23.3315 24.25 23 24.25V26.75C23.9946 26.75 24.9484 26.3549 25.6517 25.6517C26.3549 24.9484 26.75 23.9946 26.75 23H24.25ZM15.5 24.25C15.1685 24.25 14.8505 24.1183 14.6161 23.8839C14.3817 23.6495 14.25 23.3315 14.25 23H11.75C11.75 23.9946 12.1451 24.9484 12.8484 25.6517C13.5516 26.3549 14.5054 26.75 15.5 26.75V24.25ZM19.5125 17.7375C18.5375 18.7125 16.9538 18.715 15.9775 17.74L15.975 17.7375L10.5 12.2625L8.7125 14.0625C9.0625 14.695 9.24625 15.4038 9.25 16.125C9.25 16.9903 8.99341 17.8362 8.51268 18.5556C8.03195 19.2751 7.34867 19.8358 6.54924 20.167C5.74982 20.4981 4.87015 20.5848 4.02148 20.4159C3.17282 20.2471 2.39326 19.8305 1.78141 19.2186C1.16956 18.6067 0.752877 17.8272 0.584066 16.9785C0.415256 16.1299 0.501896 15.2502 0.833029 14.4508C1.16416 13.6513 1.72492 12.9681 2.44438 12.4873C3.16385 12.0066 4.00971 11.75 4.875 11.75C5.59625 11.7538 6.305 11.9375 6.9375 12.2875L8.7375 10.5L6.9375 8.7125C6.30594 9.06177 5.59669 9.2466 4.875 9.25C4.00971 9.25 3.16385 8.99341 2.44438 8.51268C1.72492 8.03195 1.16416 7.34867 0.833029 6.54924C0.501896 5.74982 0.415256 4.87015 0.584066 4.02148C0.752877 3.17282 1.16956 2.39326 1.78141 1.78141C2.39326 1.16956 3.17282 0.752877 4.02148 0.584066C4.87015 0.415256 5.74982 0.501896 6.54924 0.833029C7.34867 1.16416 8.03195 1.72492 8.51268 2.44438C8.99341 3.16385 9.25 4.00971 9.25 4.875C9.2466 5.59669 9.06177 6.30594 8.7125 6.9375L10.5 8.7375L15.35 3.8875C15.8187 3.4188 16.4542 3.15527 17.117 3.1548C17.7798 3.15433 18.4157 3.41696 18.885 3.885L18.8875 3.8875L12.2625 10.5L19.5125 17.7375ZM4.875 6.75C5.12131 6.74992 5.3652 6.70132 5.59273 6.60699C5.82025 6.51266 6.02698 6.37443 6.20109 6.2002C6.3752 6.02598 6.51328 5.81916 6.60747 5.59157C6.70165 5.36398 6.75008 5.12006 6.75 4.87375C6.74992 4.62744 6.70132 4.38356 6.60699 4.15603C6.51266 3.9285 6.37443 3.72178 6.2002 3.54767C6.02598 3.37356 5.81916 3.23547 5.59157 3.14129C5.36398 3.0471 5.12006 2.99867 4.87375 2.99875C4.37631 2.99892 3.8993 3.19669 3.54767 3.54855C3.19604 3.90042 2.99859 4.37756 2.99875 4.875C2.99892 5.37245 3.19669 5.84946 3.54855 6.20109C3.90042 6.55272 4.37756 6.75017 4.875 6.75ZM6.75 16.125C6.74992 15.8787 6.70132 15.6348 6.60699 15.4073C6.51266 15.1798 6.37443 14.973 6.2002 14.7989C6.02598 14.6248 5.81916 14.4867 5.59157 14.3925C5.36398 14.2984 5.12006 14.2499 4.87375 14.25C4.62744 14.2501 4.38356 14.2987 4.15603 14.393C3.9285 14.4874 3.72178 14.6256 3.54767 14.7998C3.37356 14.974 3.23547 15.1808 3.14129 15.4084C3.0471 15.636 2.99867 15.8799 2.99875 16.1263C2.99892 16.6237 3.19669 17.1007 3.54855 17.4523C3.90042 17.804 4.37756 18.0014 4.875 18.0013C5.37245 18.0011 5.84946 17.8033 6.20109 17.4515C6.55272 17.0996 6.75017 16.6224 6.75 16.125Z" fill="white"/>
</svg>
