<svg width="20" height="20" viewBox="0 0 20 20" fill="none" xmlns="http://www.w3.org/2000/svg">
<path d="M7.1 9.35C7.929 9.35 8.6 8.567 8.6 7.6C8.6 6.633 7.929 5.85 7.1 5.85C6.271 5.85 5.6 6.634 5.6 7.6C5.6 8.566 6.272 9.35 7.1 9.35ZM9.6 0C7.05392 0 4.61212 1.01143 2.81177 2.81177C1.01143 4.61212 0 7.05392 0 9.6C6.56344e-05 10.8607 0.248442 12.109 0.730948 13.2737C1.21345 14.4384 1.92064 15.4967 2.81213 16.3881C3.70362 17.2795 4.76195 17.9866 5.9267 18.4689C7.09145 18.9513 8.33981 19.1996 9.6005 19.1995C10.8612 19.1994 12.1095 18.9511 13.2742 18.4686C14.4389 17.986 15.4972 17.2789 16.3886 16.3874C17.28 15.4959 17.9871 14.4376 18.4694 13.2728C18.9518 12.108 19.2001 10.8597 19.2 9.599C19.2 4.298 14.901 0 9.6 0ZM9.6 17.199C8.60195 17.199 7.61368 17.0024 6.69161 16.6205C5.76953 16.2386 4.93171 15.6787 4.22599 14.973C3.52026 14.2673 2.96045 13.4295 2.57852 12.5074C2.19658 11.5853 2 10.597 2 9.599C2 8.60095 2.19658 7.61268 2.57852 6.69061C2.96045 5.76853 3.52026 4.93071 4.22599 4.22499C4.93171 3.51926 5.76953 2.95945 6.69161 2.57752C7.61368 2.19558 8.60195 1.999 9.6 1.999C11.6156 1.999 13.5487 2.79971 14.974 4.22499C16.3993 5.65026 17.2 7.58335 17.2 9.599C17.2 11.6146 16.3993 13.5477 14.974 14.973C13.5487 16.3983 11.6156 17.199 9.6 17.199ZM13.941 10.936C13.7645 10.847 13.5602 10.8306 13.3717 10.8904C13.1833 10.9502 13.0258 11.0815 12.933 11.256C12.899 11.321 12.064 12.849 9.601 12.849C7.15 12.849 6.31 11.336 6.268 11.257C6.17809 11.0794 6.02133 10.9449 5.8322 10.8829C5.64307 10.8209 5.43706 10.8366 5.2595 10.9265C5.08194 11.0164 4.94736 11.1732 4.88538 11.3623C4.8234 11.5514 4.83909 11.7574 4.929 11.935C4.979 12.034 6.177 14.349 9.601 14.349C13.026 14.349 14.222 12.033 14.271 11.934C14.3591 11.7578 14.3739 11.5539 14.312 11.3669C14.2502 11.1799 14.1168 11.0249 13.941 10.936ZM10.85 8.35H13.35C13.5489 8.35 13.7397 8.27098 13.8803 8.13033C14.021 7.98968 14.1 7.79891 14.1 7.6C14.1 7.40109 14.021 7.21032 13.8803 7.06967C13.7397 6.92902 13.5489 6.85 13.35 6.85H10.85C10.6511 6.85 10.4603 6.92902 10.3197 7.06967C10.179 7.21032 10.1 7.40109 10.1 7.6C10.1 7.79891 10.179 7.98968 10.3197 8.13033C10.4603 8.27098 10.6511 8.35 10.85 8.35Z" fill="#3683BC"/>
</svg>
