<svg width="18" height="18" viewBox="0 0 18 18" fill="none" xmlns="http://www.w3.org/2000/svg">
<path d="M9 0C4.02912 0 0 4.03032 0 9.00048C0 13.9709 4.02912 18 9 18C13.9709 18 18 13.9709 18 9.00048C18 4.03032 13.9709 0 9 0ZM9.91824 14.0064C9.91824 14.1792 9.77808 14.3194 9.60528 14.3194H8.39472C8.22192 14.3194 8.08176 14.1794 8.08176 14.0064V8.19408C8.08176 8.02128 8.22192 7.88112 8.39472 7.88112H9.60528C9.77808 7.88112 9.91824 8.02104 9.91824 8.19408V14.0064ZM8.99256 6.58392C8.39976 6.58392 7.90824 6.0924 7.90824 5.48496C7.90805 5.34251 7.93597 5.20143 7.99039 5.06978C8.04482 4.93814 8.12468 4.81853 8.22541 4.71781C8.32613 4.61708 8.44574 4.53722 8.57738 4.48279C8.70903 4.42837 8.85011 4.40045 8.99256 4.40064C9.6 4.40064 10.0915 4.87752 10.0915 5.48496C10.0916 5.6293 10.0633 5.77225 10.0081 5.90563C9.95286 6.039 9.87192 6.16019 9.76985 6.26225C9.66779 6.36432 9.5466 6.44526 9.41323 6.50046C9.27985 6.55565 9.1369 6.58401 8.99256 6.58392Z" fill="#24356C"/>
</svg>
