<svg width="22" height="21" viewBox="0 0 22 21" fill="none" xmlns="http://www.w3.org/2000/svg">
<path d="M8.6953 15.643L12.4795 11.8578L13.5169 12.0427C14.5755 12.2325 15.667 12.0795 16.6325 11.6059C17.5981 11.1324 18.3873 10.363 18.8853 9.40979C19.3832 8.45659 19.5639 7.36933 19.4011 6.30629C19.2383 5.24326 18.7404 4.25994 17.98 3.49949C17.2195 2.73905 16.2362 2.24117 15.1732 2.07834C14.1101 1.91551 13.0229 2.09623 12.0697 2.59419C11.1165 3.09215 10.3471 3.88136 9.87353 4.84692C9.39997 5.81248 9.24697 6.90398 9.43678 7.96253L9.62265 9.00101L2.55741 16.0663L2.73622 18.7443L5.41422 18.9231L7.26589 17.0714L6.55169 16.3572C6.36227 16.1676 6.25591 15.9106 6.25601 15.6426C6.2561 15.3747 6.36264 15.1177 6.55219 14.9283C6.74175 14.7389 6.99878 14.6325 7.26675 14.6326C7.53473 14.6327 7.79168 14.7392 7.9811 14.9288L8.6953 15.643ZM9.40951 2.07113C10.2693 1.21132 11.3363 0.587749 12.5075 0.260653C13.6786 -0.0664436 14.9143 -0.0860167 16.0952 0.203824C17.2761 0.493665 18.3623 1.08312 19.249 1.91527C20.1356 2.74742 20.7926 3.79414 21.1566 4.95433C21.5207 6.11452 21.5794 7.34897 21.3271 8.53847C21.0748 9.72797 20.52 10.8323 19.7164 11.7448C18.9128 12.6574 17.8874 13.3472 16.7393 13.7478C15.5912 14.1484 14.3592 14.2462 13.1623 14.0317L6.19509 21L1.71997 20.702C1.47557 20.6859 1.24535 20.5815 1.07216 20.4083C0.898967 20.2351 0.794598 20.0049 0.778474 19.7605L0.480469 15.2854L7.44874 8.31711C7.24713 7.19514 7.32007 6.04104 7.66134 4.95337C8.00261 3.86571 8.60206 2.87681 9.4085 2.07113H9.40951ZM13.6947 7.78474C13.5071 7.59709 13.3584 7.37434 13.2569 7.12919C13.1554 6.88404 13.1032 6.62131 13.1032 6.35598C13.1032 6.09065 13.1556 5.82794 13.2571 5.58282C13.3587 5.33771 13.5076 5.11501 13.6952 4.92743C13.8829 4.73985 14.1056 4.59106 14.3508 4.48957C14.5959 4.38808 14.8587 4.33587 15.124 4.33591C15.3893 4.33596 15.652 4.38827 15.8971 4.48984C16.1423 4.59142 16.365 4.74029 16.5525 4.92793C16.9314 5.3069 17.1441 5.82085 17.1441 6.3567C17.144 6.89255 16.931 7.40641 16.552 7.78525C16.1731 8.16408 15.6591 8.37686 15.1233 8.37676C14.5874 8.37667 14.0736 8.16371 13.6947 7.78474Z" fill="#8F8F8F"/>
</svg>
