<svg width="26" height="33" viewBox="0 0 26 33" fill="none" xmlns="http://www.w3.org/2000/svg">
<path d="M12.879 0.916504C17.9228 0.916504 22.0218 4.96984 22.0218 9.98317C22.0218 16.7794 12.879 26.8213 12.879 26.8213C12.879 26.8213 3.7361 16.7794 3.7361 9.98317C3.7361 4.96984 7.83514 0.916504 12.879 0.916504ZM12.879 7.01174C12.0707 7.01174 11.2955 7.33283 10.724 7.90437C10.1524 8.47591 9.83133 9.25108 9.83133 10.0594C9.83133 10.8676 10.1524 11.6428 10.724 12.2144C11.2955 12.7859 12.0707 13.107 12.879 13.107C13.6872 13.107 14.4624 12.7859 15.0339 12.2144C15.6055 11.6428 15.9266 10.8676 15.9266 10.0594C15.9266 9.25108 15.6055 8.47591 15.0339 7.90437C14.4624 7.33283 13.6872 7.01174 12.879 7.01174ZM25.0694 26.8213C25.0694 30.1889 19.6142 32.9165 12.879 32.9165C6.14371 32.9165 0.688477 30.1889 0.688477 26.8213C0.688477 24.8556 2.54752 23.1032 5.42752 21.9908L6.40276 23.3775C4.75705 24.0632 3.7361 25.0079 3.7361 26.0594C3.7361 28.1622 7.83514 29.8689 12.879 29.8689C17.9228 29.8689 22.0218 28.1622 22.0218 26.0594C22.0218 25.0079 21.0009 24.0632 19.3551 23.3775L20.3304 21.9908C23.2104 23.1032 25.0694 24.8556 25.0694 26.8213Z" fill="white"/>
</svg>
