<svg width="19" height="20" viewBox="0 0 19 20" fill="none" xmlns="http://www.w3.org/2000/svg">
<path fill-rule="evenodd" clip-rule="evenodd" d="M12.7074 1.98641V4.95327C14.7358 6.07358 16.0317 8.26747 16.0317 10.7354C16.0317 14.3401 13.0635 17.264 9.40327 17.264C5.74553 17.264 2.77741 14.3414 2.77741 10.7354C2.77741 8.18789 4.05559 6.00033 6.18254 4.92422V1.98389C2.47302 3.21534 0 6.64826 0 10.7354C0 15.8532 4.21095 19.9998 9.402 19.9998C14.5943 19.9998 18.8065 15.8532 18.8065 10.7354C18.8078 6.72278 16.3146 3.28102 12.7074 1.98641Z" fill="#8F8F8F"/>
<path fill-rule="evenodd" clip-rule="evenodd" d="M9.34199 9.89332C10.3246 9.89332 11.1254 9.28707 11.1254 8.53556V1.35776C11.1254 0.607518 10.3246 0 9.34199 0C8.35809 0 7.55859 0.607518 7.55859 1.35776V8.53556C7.55859 9.28707 8.35809 9.89332 9.34199 9.89332Z" fill="#8F8F8F"/>
</svg>
