<svg width="12" height="16" viewBox="0 0 12 16" fill="none" xmlns="http://www.w3.org/2000/svg">
<path d="M10.5985 3.84489C10.3431 3.2865 9.97993 2.78467 9.51642 2.35584C8.57482 1.48175 7.32482 1 6 1C4.67518 1 3.42518 1.48175 2.48358 2.35401C2.02007 2.78467 1.65693 3.28467 1.40146 3.84489C1.13504 4.42883 1 5.04745 1 5.68613V6.17883C1 6.29197 1.09124 6.38321 1.20438 6.38321H2.18978C2.30292 6.38321 2.39416 6.29197 2.39416 6.17883V5.68613C2.39416 3.87044 4.01095 2.39416 6 2.39416C7.98905 2.39416 9.60584 3.87044 9.60584 5.68613C9.60584 6.43066 9.34124 7.13139 8.83942 7.71533C8.34306 8.2938 7.64234 8.70803 6.86679 8.88321C6.42336 8.98358 6.02372 9.23358 5.74088 9.59124C5.45902 9.94768 5.30539 10.3886 5.30474 10.8431V11.4161C5.30474 11.5292 5.39599 11.6204 5.50912 11.6204H6.49452C6.60766 11.6204 6.6989 11.5292 6.6989 11.4161V10.8431C6.6989 10.5566 6.89781 10.3047 7.17336 10.2427C8.23905 10.0018 9.2062 9.42701 9.89781 8.62409C10.2463 8.21715 10.5182 7.7646 10.7062 7.27372C10.9015 6.7646 11 6.22993 11 5.68613C11 5.04745 10.865 4.42701 10.5985 3.84489ZM6 13.0803C5.43613 13.0803 4.9781 13.5383 4.9781 14.1022C4.9781 14.6661 5.43613 15.1241 6 15.1241C6.56387 15.1241 7.0219 14.6661 7.0219 14.1022C7.0219 13.5383 6.56387 13.0803 6 13.0803Z" fill="white" stroke="white" stroke-width="0.5"/>
</svg>
