<svg width="28" height="30" viewBox="0 0 28 30" fill="none" xmlns="http://www.w3.org/2000/svg">
<path d="M13.9997 20.6663C17.1248 20.6663 19.6663 18.1248 19.6663 14.9997C19.6663 11.8745 17.1248 9.33301 13.9997 9.33301C10.8745 9.33301 8.33301 11.8745 8.33301 14.9997C8.33301 18.1248 10.8745 20.6663 13.9997 20.6663ZM13.9997 12.1663C15.5353 12.1663 16.833 13.464 16.833 14.9997C16.833 16.5353 15.5353 17.833 13.9997 17.833C12.464 17.833 11.1663 16.5353 11.1663 14.9997C11.1663 13.464 12.464 12.1663 13.9997 12.1663Z" fill="#24356C"/>
<path d="M1.03079 20.859L2.44746 23.3098C3.19971 24.6089 5.01021 25.0963 6.31496 24.344L7.06438 23.9105C7.88397 24.5552 8.78762 25.0852 9.75038 25.4858V26.333C9.75038 27.8956 11.0211 29.1663 12.5837 29.1663H15.417C16.9796 29.1663 18.2504 27.8956 18.2504 26.333V25.4858C19.2128 25.0852 20.1164 24.5557 20.9364 23.9119L21.6858 24.3454C22.9934 25.0963 24.7996 24.6118 25.5547 23.3098L26.97 20.8604C27.3454 20.2098 27.4472 19.4367 27.253 18.711C27.0589 17.9853 26.5846 17.3663 25.9344 16.9901L25.219 16.5764C25.3711 15.5317 25.3711 14.4705 25.219 13.4258L25.9344 13.0121C26.5843 12.6356 27.0583 12.0166 27.2525 11.2911C27.4466 10.5655 27.345 9.79252 26.97 9.14176L25.5547 6.69234C24.8025 5.38901 22.9934 4.90026 21.6858 5.65534L20.9364 6.08884C20.1168 5.44413 19.2131 4.91414 18.2504 4.51351V3.66634C18.2504 2.10376 16.9796 0.833008 15.417 0.833008H12.5837C11.0211 0.833008 9.75038 2.10376 9.75038 3.66634V4.51351C8.78795 4.9142 7.88437 5.44367 7.06438 6.08742L6.31496 5.65392C5.00596 4.90167 3.19829 5.38901 2.44604 6.69093L1.03079 9.14034C0.65535 9.79101 0.553533 10.5641 0.747706 11.2898C0.941879 12.0155 1.41616 12.6344 2.06638 13.0107L2.78179 13.4243C2.62912 14.4685 2.62912 15.5294 2.78179 16.5736L2.06638 16.9873C1.41635 17.364 0.942291 17.9832 0.748157 18.709C0.554023 19.4349 0.655665 20.208 1.03079 20.859ZM5.74263 16.9518C5.58266 16.3134 5.50131 15.6578 5.50038 14.9997C5.50038 14.3452 5.58254 13.6878 5.74121 13.0475C5.81592 12.7491 5.79135 12.4344 5.67121 12.1512C5.55106 11.8679 5.34189 11.6315 5.07538 11.4778L3.48446 10.557L4.89829 8.10759L6.52038 9.04542C6.7849 9.19849 7.09194 9.26163 7.39541 9.22536C7.69887 9.18909 7.98238 9.05536 8.20338 8.84426C9.16178 7.93271 10.3175 7.25449 11.5807 6.86234C11.8709 6.77375 12.1249 6.59435 12.3055 6.35054C12.4861 6.10673 12.5836 5.8114 12.5837 5.50801V3.66634H15.417V5.50801C15.4172 5.8114 15.5147 6.10673 15.6953 6.35054C15.8758 6.59435 16.1299 6.77375 16.42 6.86234C17.683 7.25506 18.8386 7.9332 19.7974 8.84426C20.0186 9.05495 20.3021 9.1884 20.6054 9.22466C20.9088 9.26092 21.2157 9.19804 21.4804 9.04542L23.101 8.10901L24.5177 10.5584L22.9254 11.4778C22.659 11.6317 22.45 11.8681 22.3299 12.1513C22.2098 12.4345 22.1851 12.7491 22.2595 13.0475C22.4182 13.6878 22.5004 14.3452 22.5004 14.9997C22.5004 15.6528 22.4182 16.3101 22.2581 16.9518C22.1838 17.2504 22.2087 17.5651 22.3291 17.8483C22.4494 18.1315 22.6588 18.3678 22.9254 18.5215L24.5163 19.4409L23.1025 21.8903L21.4804 20.9539C21.2159 20.8006 20.9088 20.7374 20.6053 20.7736C20.3018 20.8099 20.0183 20.9438 19.7974 21.1551C18.839 22.0666 17.6832 22.7449 16.42 23.137C16.1299 23.2256 15.8758 23.405 15.6953 23.6488C15.5147 23.8926 15.4172 24.188 15.417 24.4913L15.4199 26.333H12.5837V24.4913C12.5836 24.188 12.4861 23.8926 12.3055 23.6488C12.1249 23.405 11.8709 23.2256 11.5807 23.137C10.3178 22.7443 9.16215 22.0661 8.20338 21.1551C7.98281 20.9432 7.69912 20.809 7.39538 20.773C7.09163 20.7369 6.78442 20.8009 6.52038 20.9553L4.89971 21.8932L3.48304 19.4438L5.07538 18.5215C5.34198 18.3678 5.55131 18.1315 5.67169 17.8483C5.79208 17.5651 5.81698 17.2504 5.74263 16.9518Z" fill="#24356C"/>
</svg>
