<svg width="31" height="27" viewBox="0 0 31 27" fill="none" xmlns="http://www.w3.org/2000/svg">
<path d="M26.2625 0.292969L24.1587 2.39672C28.2249 6.46287 28.2249 13.3365 24.1587 17.4027L26.2625 19.5064C31.4698 14.2991 31.4698 5.50027 26.2625 0.292969ZM19.6953 6.86012C20.5374 7.70221 21.0031 8.78236 21.0031 9.89969C21.0031 11.017 20.5374 12.0972 19.6953 12.9393L21.7991 15.043C23.2036 13.64 23.9787 11.8115 23.9787 9.89969C23.9787 7.98787 23.2036 6.15936 21.7991 4.75637L19.6953 6.86012ZM6.17719 2.39672L4.07344 0.292969C-1.13386 5.50027 -1.13386 14.2991 4.07344 19.5064L6.17719 17.4027C2.11103 13.3365 2.11103 6.46287 6.17719 2.39672Z" fill="#24356C"/>
<path d="M7.79291 4.75684C6.38843 6.15983 5.61328 7.98834 5.61328 9.90016C5.61328 11.812 6.38843 13.6405 7.79291 15.0435L9.89666 12.9397C9.05456 12.0976 8.58888 11.0175 8.58888 9.90016C8.58888 8.78282 9.05456 7.70268 9.89666 6.86058L7.79291 4.75684ZM17.7716 9.52821C17.7716 8.73903 17.4581 7.98218 16.9 7.42414C16.342 6.86611 15.5852 6.55261 14.796 6.55261C14.0068 6.55261 13.2499 6.86611 12.6919 7.42414C12.1339 7.98218 11.8204 8.73903 11.8204 9.52821C11.8197 10.0193 11.941 10.5029 12.1734 10.9355C12.4059 11.3682 12.7421 11.7363 13.152 12.0069L11.8234 26.6379H17.7686L16.44 12.0054C17.2434 11.4728 17.7716 10.5622 17.7716 9.52821Z" fill="#24356C"/>
</svg>
