<svg width="15" height="17" viewBox="0 0 15 17" fill="none" xmlns="http://www.w3.org/2000/svg">
<path d="M3.33301 7.5H4.99967V9.16667H3.33301V7.5ZM3.33301 10.8333H4.99967V12.5H3.33301V10.8333ZM6.66634 7.5H8.33301V9.16667H6.66634V7.5ZM6.66634 10.8333H8.33301V12.5H6.66634V10.8333ZM9.99967 7.5H11.6663V9.16667H9.99967V7.5ZM9.99967 10.8333H11.6663V12.5H9.99967V10.8333Z" fill="#24356C"/>
<path d="M1.66667 16.6667H13.3333C14.2525 16.6667 15 15.9192 15 15V3.33333C15 2.41417 14.2525 1.66667 13.3333 1.66667H11.6667V0H10V1.66667H5V0H3.33333V1.66667H1.66667C0.7475 1.66667 0 2.41417 0 3.33333V15C0 15.9192 0.7475 16.6667 1.66667 16.6667ZM13.3333 5L13.3342 15H1.66667V5H13.3333Z" fill="#24356C"/>
</svg>
