<svg width="23" height="22" viewBox="0 0 23 22" fill="none" xmlns="http://www.w3.org/2000/svg">
<path d="M1.41967 12.2222H8.87128C9.20066 12.2222 9.51656 12.0935 9.74946 11.8642C9.98237 11.635 10.1132 11.3242 10.1132 11V1.22222C10.1132 0.898069 9.98237 0.587192 9.74946 0.357981C9.51656 0.128769 9.20066 0 8.87128 0H1.41967C1.09029 0 0.774397 0.128769 0.541489 0.357981C0.308581 0.587192 0.177734 0.898069 0.177734 1.22222V11C0.177734 11.3242 0.308581 11.635 0.541489 11.8642C0.774397 12.0935 1.09029 12.2222 1.41967 12.2222ZM0.177734 20.7778C0.177734 21.1019 0.308581 21.4128 0.541489 21.642C0.774397 21.8712 1.09029 22 1.41967 22H8.87128C9.20066 22 9.51656 21.8712 9.74946 21.642C9.98237 21.4128 10.1132 21.1019 10.1132 20.7778V15.8889C10.1132 15.5647 9.98237 15.2539 9.74946 15.0246C9.51656 14.7954 9.20066 14.6667 8.87128 14.6667H1.41967C1.09029 14.6667 0.774397 14.7954 0.541489 15.0246C0.308581 15.2539 0.177734 15.5647 0.177734 15.8889V20.7778ZM12.5971 20.7778C12.5971 21.1019 12.7279 21.4128 12.9608 21.642C13.1938 21.8712 13.5096 22 13.839 22H21.2906C21.62 22 21.9359 21.8712 22.1688 21.642C22.4017 21.4128 22.5326 21.1019 22.5326 20.7778V12.2222C22.5326 11.8981 22.4017 11.5872 22.1688 11.358C21.9359 11.1288 21.62 11 21.2906 11H13.839C13.5096 11 13.1938 11.1288 12.9608 11.358C12.7279 11.5872 12.5971 11.8981 12.5971 12.2222V20.7778ZM13.839 8.55556H21.2906C21.62 8.55556 21.9359 8.42679 22.1688 8.19757C22.4017 7.96836 22.5326 7.65749 22.5326 7.33333V1.22222C22.5326 0.898069 22.4017 0.587192 22.1688 0.357981C21.9359 0.128769 21.62 0 21.2906 0H13.839C13.5096 0 13.1938 0.128769 12.9608 0.357981C12.7279 0.587192 12.5971 0.898069 12.5971 1.22222V7.33333C12.5971 7.65749 12.7279 7.96836 12.9608 8.19757C13.1938 8.42679 13.5096 8.55556 13.839 8.55556Z" fill="white"/>
</svg>
