<svg width="11" height="28" viewBox="0 0 11 28" fill="none" xmlns="http://www.w3.org/2000/svg">
<path d="M10.3125 23.625C10.3125 26.0374 8.20969 28 5.625 28C3.04031 28 0.9375 26.0374 0.9375 23.625C0.9375 21.2126 3.04031 19.25 5.625 19.25C8.20969 19.25 10.3125 21.2126 10.3125 23.625ZM1.48008 1.37807L2.27695 16.2531C2.31439 16.9516 2.93209 17.5 3.68145 17.5H7.56855C8.31791 17.5 8.93561 16.9516 8.97305 16.2531L9.76992 1.37807C9.81006 0.628359 9.16969 0 8.36543 0H2.88457C2.08031 0 1.43994 0.628359 1.48008 1.37807Z" fill="white"/>
</svg>
