<svg width="25" height="28" viewBox="0 0 25 28" fill="none" xmlns="http://www.w3.org/2000/svg">
<path d="M21.8555 0H3.1888C1.90547 0 0.855469 1.05 0.855469 2.33333V25.6667C0.855469 26.95 1.90547 28 3.1888 28H21.8555C23.1388 28 24.1888 26.95 24.1888 25.6667V2.33333C24.1888 1.05 23.1388 0 21.8555 0ZM7.85547 23.3333C7.85547 23.975 7.33047 24.5 6.6888 24.5H4.35547C3.7138 24.5 3.1888 23.975 3.1888 23.3333V22.75C3.1888 22.1083 3.7138 21.5833 4.35547 21.5833H6.6888C7.33047 21.5833 7.85547 22.1083 7.85547 22.75V23.3333ZM7.85547 18.6667C7.85547 19.3083 7.33047 19.8333 6.6888 19.8333H4.35547C3.7138 19.8333 3.1888 19.3083 3.1888 18.6667V18.0833C3.1888 17.4417 3.7138 16.9167 4.35547 16.9167H6.6888C7.33047 16.9167 7.85547 17.4417 7.85547 18.0833V18.6667ZM7.85547 14C7.85547 14.6417 7.33047 15.1667 6.6888 15.1667H4.35547C3.7138 15.1667 3.1888 14.6417 3.1888 14V13.4167C3.1888 12.775 3.7138 12.25 4.35547 12.25H6.6888C7.33047 12.25 7.85547 12.775 7.85547 13.4167V14ZM14.8555 23.3333C14.8555 23.975 14.3305 24.5 13.6888 24.5H11.3555C10.7138 24.5 10.1888 23.975 10.1888 23.3333V22.75C10.1888 22.1083 10.7138 21.5833 11.3555 21.5833H13.6888C14.3305 21.5833 14.8555 22.1083 14.8555 22.75V23.3333ZM14.8555 18.6667C14.8555 19.3083 14.3305 19.8333 13.6888 19.8333H11.3555C10.7138 19.8333 10.1888 19.3083 10.1888 18.6667V18.0833C10.1888 17.4417 10.7138 16.9167 11.3555 16.9167H13.6888C14.3305 16.9167 14.8555 17.4417 14.8555 18.0833V18.6667ZM14.8555 14C14.8555 14.6417 14.3305 15.1667 13.6888 15.1667H11.3555C10.7138 15.1667 10.1888 14.6417 10.1888 14V13.4167C10.1888 12.775 10.7138 12.25 11.3555 12.25H13.6888C14.3305 12.25 14.8555 12.775 14.8555 13.4167V14ZM21.8555 23.3333C21.8555 23.975 21.3305 24.5 20.6888 24.5H18.3555C17.7138 24.5 17.1888 23.975 17.1888 23.3333V22.75C17.1888 22.1083 17.7138 21.5833 18.3555 21.5833H20.6888C21.3305 21.5833 21.8555 22.1083 21.8555 22.75V23.3333ZM21.8555 18.6667C21.8555 19.3083 21.3305 19.8333 20.6888 19.8333H18.3555C17.7138 19.8333 17.1888 19.3083 17.1888 18.6667V18.0833C17.1888 17.4417 17.7138 16.9167 18.3555 16.9167H20.6888C21.3305 16.9167 21.8555 17.4417 21.8555 18.0833V18.6667ZM21.8555 14C21.8555 14.6417 21.3305 15.1667 20.6888 15.1667H18.3555C17.7138 15.1667 17.1888 14.6417 17.1888 14V13.4167C17.1888 12.775 17.7138 12.25 18.3555 12.25H20.6888C21.3305 12.25 21.8555 12.775 21.8555 13.4167V14ZM21.8555 8.75C21.8555 9.39167 21.3305 9.91667 20.6888 9.91667H4.35547C3.7138 9.91667 3.1888 9.39167 3.1888 8.75V4.08333C3.1888 3.44167 3.7138 2.91667 4.35547 2.91667H20.6888C21.3305 2.91667 21.8555 3.44167 21.8555 4.08333V8.75Z" fill="white"/>
</svg>
