<svg width="38" height="37" viewBox="0 0 38 37" fill="none" xmlns="http://www.w3.org/2000/svg">
<path fill-rule="evenodd" clip-rule="evenodd" d="M21.0529 32.5427L32.1492 13.3658C33.132 11.6636 32.4884 9.45011 30.7065 8.42445L30.5018 8.30624L30.547 8.22803C31.6843 6.26072 30.9296 3.69787 28.8597 2.50437L28.2713 2.16618C26.2033 0.972201 23.6032 1.60276 22.4659 3.57007L22.4194 3.65059L22.038 3.43193C20.2598 2.40529 18.0165 2.95194 17.0305 4.65701L5.93425 23.8338C4.94962 25.5366 5.59605 27.7532 7.37509 28.7757L16.0441 33.7701C17.8264 34.7975 20.067 34.2477 21.0529 32.5427ZM21.9662 8.91136C21.5452 7.34022 22.5361 5.71161 24.1806 5.26707C25.8243 4.82663 27.4977 5.74524 27.9187 7.31638C28.3397 8.88752 27.3456 10.5112 25.7051 10.9566C24.0581 11.392 22.3862 10.4789 21.9662 8.91136ZM11.9929 29.0862L13.4344 26.5921C12.2774 25.6343 11.6154 24.223 11.7159 22.8058C11.7258 22.6446 11.7683 22.4871 11.841 22.343C11.9137 22.1988 12.015 22.0709 12.1387 21.9672C12.2657 21.8591 12.4133 21.778 12.5725 21.7286C12.7318 21.6793 12.8994 21.6627 13.0652 21.6801C13.3959 21.7114 13.7015 21.8699 13.9177 22.122C14.134 22.3741 14.244 22.7003 14.2247 23.0319C14.1916 23.5036 14.3873 23.98 14.718 24.3795L16.3912 21.4947C14.6906 20.0973 14.1114 17.7907 15.1344 16.0135C16.1659 14.2243 18.4617 13.576 20.523 14.3674L21.9353 11.9239L23.3822 12.7593L21.9697 15.2165C23.126 16.1861 23.7885 17.5992 23.6866 19.0188C23.6747 19.1825 23.6298 19.342 23.5547 19.488C23.4797 19.6339 23.376 19.7633 23.2498 19.8682C23.1237 19.9732 22.9776 20.0516 22.8205 20.0989C22.6633 20.1461 22.4982 20.1612 22.3351 20.1432C22.0051 20.1084 21.701 19.9485 21.4854 19.6962C21.2698 19.4439 21.1593 19.1186 21.1764 18.7872C21.2113 18.315 21.0184 17.8417 20.6937 17.4426L19.0266 20.3433C20.6935 21.7381 21.2526 24.0208 20.2358 25.7847C19.2171 27.5491 16.9711 28.2093 14.9393 27.4625L13.5122 29.945L11.9929 29.0862Z" fill="white"/>
</svg>
