<svg width="30" height="24" viewBox="0 0 30 24" fill="none" xmlns="http://www.w3.org/2000/svg">
<path d="M24.375 23.25H19.4531C19.0664 23.25 18.75 22.9336 18.75 22.5469V20.2031C18.75 19.8164 19.0664 19.5 19.4531 19.5H24.375C25.4121 19.5 26.25 18.6621 26.25 17.625V6.375C26.25 5.33789 25.4121 4.5 24.375 4.5H19.4531C19.0664 4.5 18.75 4.18359 18.75 3.79688V1.45312C18.75 1.06641 19.0664 0.75 19.4531 0.75H24.375C27.4805 0.75 30 3.26953 30 6.375V17.625C30 20.7305 27.4805 23.25 24.375 23.25ZM21.6211 11.4727L11.7773 1.62891C10.8984 0.75 9.375 1.36523 9.375 2.625V8.25H1.40625C0.626953 8.25 0 8.87695 0 9.65625V15.2812C0 16.0605 0.626953 16.6875 1.40625 16.6875H9.375V22.3125C9.375 23.5723 10.8984 24.1875 11.7773 23.3086L21.6211 13.4648C22.166 12.9141 22.166 12.0234 21.6211 11.4727Z" fill="#24356C"/>
</svg>
