<svg width="26" height="30" viewBox="0 0 26 30" fill="none" xmlns="http://www.w3.org/2000/svg">
<path d="M22.4751 20.621C23.2028 20.9714 23.7688 21.4295 24.1731 21.9955C24.5773 22.5615 24.8603 23.1544 25.022 23.7743C25.1837 24.3942 25.2915 24.9736 25.3454 25.5126C25.3993 26.0517 25.3993 26.4694 25.3454 26.7659C25.2915 27.0623 25.1837 27.2779 25.022 27.4127C24.6447 27.7361 24.1865 28.0191 23.6475 28.2617C23.1085 28.5042 22.5156 28.7198 21.8687 28.9085C21.2219 29.0971 20.5616 29.2454 19.8878 29.3532L17.9069 29.6766C16.3977 29.8652 14.8075 29.973 13.1366 30C11.4386 29.973 9.83505 29.8652 8.32578 29.6766C7.67895 29.5957 7.01865 29.4879 6.34487 29.3532C5.67109 29.2184 5.02427 29.0702 4.40439 28.9085C3.78451 28.7468 3.19159 28.5312 2.62561 28.2617C2.05964 27.9921 1.58799 27.7092 1.21068 27.4127C1.04897 27.2779 0.947905 27.0691 0.907478 26.7861C0.867051 26.5031 0.860313 26.0786 0.887264 25.5126C0.914216 24.9467 1.02202 24.3672 1.21068 23.7743C1.39934 23.1814 1.68232 22.5884 2.05964 21.9955C2.43696 21.4026 3.00293 20.9444 3.75756 20.621L6.26402 19.4891C7.0456 19.1387 7.74633 18.7614 8.36621 18.3571C8.98608 17.9528 9.45773 17.4812 9.78114 16.9422C10.1046 16.4031 10.2797 15.7563 10.3067 15.0017V14.7591C9.84852 14.3818 9.51163 13.9371 9.29602 13.425L8.36621 11.242C7.88109 10.703 7.51725 10.2044 7.27469 9.74621C7.05908 9.36889 6.95127 9.01853 6.95127 8.69512C6.95127 8.3717 7.18036 8.20999 7.63853 8.20999C7.47682 7.18585 7.43639 6.26951 7.51725 5.46098C7.57115 4.7872 7.73286 4.16732 8.00237 3.60135C8.27188 3.03537 8.757 2.75239 9.45773 2.75239C9.59249 2.24031 9.82157 1.78214 10.145 1.37788C10.4414 1.02751 10.8592 0.704099 11.3982 0.407636C11.9372 0.111173 12.6514 -0.0235823 13.5408 0.00336889C14.3494 0.00336889 15.0097 0.178551 15.5217 0.528916C16.0338 0.879281 16.4785 1.28355 16.8558 1.74172C17.2331 2.19989 17.5431 2.64458 17.7856 3.0758C18.0282 3.50702 18.2977 3.81696 18.5942 4.00562C18.702 4.05952 18.7963 4.1269 18.8772 4.20775C18.958 4.2886 18.958 4.39641 18.8772 4.53116C18.7694 4.90848 18.6615 5.46098 18.5537 6.18866C18.4459 6.91634 18.4594 7.59012 18.5942 8.20999C19.0793 8.23695 19.3084 8.39865 19.2814 8.69512C19.2545 8.99158 19.1197 9.34194 18.8772 9.74621C18.6076 10.2044 18.2303 10.703 17.7452 11.242C17.5566 11.7271 17.4083 12.1449 17.3005 12.4952C17.1927 12.8456 17.0714 13.169 16.9367 13.4655C16.8019 13.7619 16.6672 13.991 16.5324 14.1527C16.3977 14.3144 16.1955 14.5166 15.926 14.7591V15.0017C15.926 15.7833 16.1012 16.4301 16.4516 16.9422C16.8019 17.4542 17.287 17.9259 17.9069 18.3571C18.5268 18.7883 19.214 19.1656 19.9687 19.4891C20.7233 19.8125 21.5588 20.1898 22.4751 20.621Z" fill="white"/>
</svg>
