<svg width="25" height="14" viewBox="0 0 25 14" fill="none" xmlns="http://www.w3.org/2000/svg">
<path d="M12.5 0C4.29875 0 0 6.04 0 7C0 7.9575 4.29875 14 12.5 14C20.7 14 25 7.9575 25 7C25 6.04 20.7 0 12.5 0ZM12.5 12.3837C9.43125 12.3837 6.94375 9.97375 6.94375 7C6.94375 4.02625 9.43125 1.61375 12.5 1.61375C15.5688 1.61375 18.055 4.02625 18.055 7C18.055 9.97375 15.5688 12.3837 12.5 12.3837ZM12.5 7C11.9913 6.44125 13.3287 4.3075 12.5 4.3075C10.965 4.3075 9.72125 5.51375 9.72125 7C9.72125 8.48625 10.965 9.6925 12.5 9.6925C14.0337 9.6925 15.2787 8.48625 15.2787 7C15.2787 6.31625 12.9325 7.47375 12.5 7Z" fill="#24356C"/>
</svg>
